<svg width="35" height="35" viewBox="0 0 35 35" fill="none" xmlns="http://www.w3.org/2000/svg">
<path d="M11.8058 17.1884C11.8058 14.0721 14.3154 11.5452 17.412 11.5452C20.5086 11.5452 23.0195 14.0721 23.0195 17.1884C23.0195 20.3048 20.5086 22.8317 17.412 22.8317C14.3154 22.8317 11.8058 20.3048 11.8058 17.1884ZM8.7745 17.1884C8.7745 21.9894 12.6415 25.881 17.412 25.881C22.1825 25.881 26.0495 21.9894 26.0495 17.1884C26.0495 12.3875 22.1825 8.49589 17.412 8.49589C12.6415 8.49589 8.7745 12.3875 8.7745 17.1884ZM24.3729 8.15123C24.3728 8.553 24.491 8.9458 24.7127 9.27996C24.9343 9.61411 25.2495 9.87461 25.6183 10.0285C25.987 10.1824 26.3929 10.2228 26.7845 10.1446C27.1761 10.0664 27.5358 9.87303 27.8182 9.58904C28.1006 9.30506 28.293 8.94317 28.3711 8.54915C28.4491 8.15512 28.4093 7.74666 28.2567 7.3754C28.104 7.00415 27.8454 6.68678 27.5136 6.46343C27.1817 6.24008 26.7915 6.12079 26.3923 6.12063H26.3915C25.8563 6.12088 25.3432 6.33487 24.9647 6.7156C24.5862 7.09634 24.3734 7.61268 24.3729 8.15123V8.15123ZM10.6162 30.9678C8.97622 30.8926 8.08483 30.6177 7.49245 30.3855C6.7071 30.0778 6.14675 29.7113 5.5576 29.1192C4.96846 28.5271 4.60377 27.9637 4.29937 27.1734C4.06845 26.5775 3.79528 25.6802 3.72072 24.0297C3.63917 22.2453 3.62289 21.7093 3.62289 17.1886C3.62289 12.6679 3.64052 12.1333 3.72072 10.3475C3.79541 8.697 4.07061 7.80142 4.29937 7.20378C4.60512 6.41342 4.96926 5.8495 5.5576 5.2566C6.14595 4.6637 6.70576 4.29669 7.49245 3.99035C8.08456 3.75796 8.97622 3.48304 10.6162 3.40801C12.3893 3.32594 12.922 3.30955 17.412 3.30955C21.9021 3.30955 22.4352 3.3273 24.2098 3.40801C25.8498 3.48317 26.7397 3.76012 27.3336 3.99035C28.1189 4.29669 28.6793 4.66451 29.2684 5.2566C29.8576 5.84869 30.2209 6.41342 30.5267 7.20378C30.7576 7.79966 31.0308 8.697 31.1053 10.3475C31.1869 12.1333 31.2032 12.6679 31.2032 17.1886C31.2032 21.7093 31.1869 22.2438 31.1053 24.0297C31.0306 25.6802 30.7561 26.5772 30.5267 27.1734C30.2209 27.9637 29.8568 28.5277 29.2684 29.1192C28.6801 29.7108 28.1189 30.0778 27.3336 30.3855C26.7415 30.6179 25.8498 30.8928 24.2098 30.9678C22.4367 31.0499 21.9041 31.0663 17.412 31.0663C12.9199 31.0663 12.3888 31.0499 10.6162 30.9678V30.9678ZM10.4769 0.362513C8.68622 0.444582 7.46258 0.730335 6.39396 1.14881C5.28725 1.58096 4.35038 2.16072 3.41417 3.1014C2.47797 4.04208 1.90336 4.98642 1.47394 6.10018C1.05812 7.17628 0.774178 8.40705 0.692629 10.2092C0.609734 12.0142 0.590759 12.5912 0.590759 17.1884C0.590759 21.7857 0.609734 22.3627 0.692629 24.1677C0.774178 25.97 1.05812 27.2006 1.47394 28.2767C1.90336 29.3898 2.4781 30.3352 3.41417 31.2755C4.35024 32.2158 5.28725 32.7947 6.39396 33.2281C7.4646 33.6466 8.68622 33.9323 10.4769 34.0144C12.2714 34.0965 12.8439 34.1169 17.412 34.1169C21.9801 34.1169 22.5535 34.0978 24.3471 34.0144C26.1379 33.9323 27.3608 33.6466 28.4301 33.2281C29.5361 32.7947 30.4737 32.2162 31.4099 31.2755C32.3461 30.3348 32.9195 29.3898 33.3501 28.2767C33.7659 27.2006 34.0512 25.9698 34.1314 24.1677C34.2129 22.3614 34.2319 21.7857 34.2319 17.1884C34.2319 12.5912 34.2129 12.0142 34.1314 10.2092C34.0498 8.40692 33.7659 7.17561 33.3501 6.10018C32.9195 4.9871 32.3446 4.04357 31.4099 3.1014C30.4751 2.15923 29.5361 1.58096 28.4314 1.14881C27.3608 0.730335 26.1378 0.443228 24.3484 0.362513C22.5549 0.280444 21.9815 0.259995 17.4134 0.259995C12.8452 0.259995 12.2714 0.27909 10.4769 0.362513Z" fill="#008779"/>
</svg>
