<svg width="29" height="25" viewBox="0 0 29 25" fill="none" xmlns="http://www.w3.org/2000/svg">
<path d="M28.8656 3.08942C27.9348 3.49281 26.9562 3.77371 25.954 3.92518C26.4225 3.8443 27.1119 2.99506 27.3864 2.65132C27.8033 2.13282 28.121 1.54091 28.3234 0.905662C28.3234 0.858482 28.3703 0.791082 28.3234 0.757382C28.2998 0.744403 28.2734 0.737602 28.2465 0.737602C28.2196 0.737602 28.1931 0.744403 28.1695 0.757382C27.0813 1.35079 25.9231 1.80369 24.7224 2.10538C24.6806 2.11825 24.6361 2.11941 24.5936 2.10872C24.5512 2.09803 24.5124 2.07591 24.4815 2.04472C24.388 1.93265 24.2874 1.82684 24.1803 1.72794C23.6906 1.2861 23.1349 0.924472 22.5337 0.656282C21.7222 0.32102 20.8456 0.175825 19.9702 0.231663C19.1208 0.285682 18.2915 0.515105 17.5339 0.905662C16.7878 1.31742 16.1321 1.87681 15.6062 2.55022C15.053 3.24333 14.6536 4.04769 14.4349 4.90921C14.2545 5.7287 14.234 6.57567 14.3746 7.40301C14.3746 7.54455 14.3746 7.56477 14.2541 7.54455C9.48183 6.83685 5.56625 5.13163 2.36686 1.47182C2.2263 1.31006 2.15268 1.31006 2.03889 1.47182C0.646686 3.60166 1.32271 6.97165 3.06296 8.63643C3.29723 8.85885 3.53819 9.07453 3.79253 9.27673C2.99464 9.21969 2.21623 9.00195 1.50343 8.63643C1.36956 8.54881 1.29593 8.59599 1.28924 8.75775C1.27027 8.98201 1.27027 9.20749 1.28924 9.43175C1.4289 10.5065 1.84952 11.5246 2.50809 12.382C3.16666 13.2394 4.03954 13.9052 5.03748 14.3115C5.28076 14.4164 5.53424 14.4955 5.79382 14.5474C5.05517 14.6938 4.29759 14.7166 3.55157 14.6148C3.39093 14.5811 3.33069 14.6687 3.39093 14.8237C4.37485 17.5197 6.51001 18.342 8.07624 18.8003C8.29042 18.834 8.50461 18.834 8.74557 18.8879C8.74557 18.8879 8.74557 18.8879 8.70541 18.9284C8.24357 19.7776 6.37614 20.3505 5.5194 20.6471C3.95563 21.2127 2.28836 21.4289 0.633299 21.2806C0.372261 21.2402 0.312021 21.2469 0.245088 21.2806C0.178155 21.3143 0.245088 21.3885 0.318714 21.4559C0.653379 21.6783 0.988043 21.8738 1.33609 22.0625C2.37225 22.6316 3.46767 23.0837 4.60242 23.4105C10.4791 25.0416 17.0921 23.8418 21.503 19.4271C24.9701 15.9628 26.1883 11.1841 26.1883 6.39875C26.1883 6.21677 26.4092 6.10893 26.5363 6.01457C27.4135 5.32635 28.1868 4.51357 28.8321 3.60166C28.9439 3.46572 29.0012 3.29265 28.9928 3.11638V3.11638C28.9928 3.01528 28.9928 3.0355 28.8656 3.08942Z" fill="#008779"/>
</svg>
