<svg width="16" height="16" viewBox="0 0 16 16" fill="none" xmlns="http://www.w3.org/2000/svg">
<path d="M10.1602 4.2093C9.66636 3.59084 9.24669 3.09036 8.8617 2.57486C8.0259 1.4698 8.01958 0.651891 8.85576 0.655162C10.2521 0.666852 11.6506 0.689521 13.0512 0.723175C13.2966 0.729807 13.5667 0.76736 13.841 0.852096C14.4615 1.05292 15.0462 1.8268 15.0576 2.4507C15.0607 2.6382 15.0432 2.81674 15.001 2.96436C14.6865 4.19045 14.737 5.65668 14.884 7.18519C14.9252 7.62081 14.9705 8.07838 14.9316 8.46393C14.8698 9.14637 14.3952 9.09488 13.7085 8.35187C13.0032 7.58566 12.3203 6.78897 11.5553 5.93123C11.3271 6.06289 11.0862 6.12865 10.9255 6.29492C9.1929 8.05837 7.49114 9.86048 5.75234 11.6162C4.59923 12.7776 3.40909 13.8926 2.21893 15.0076C2.07248 15.1499 1.87467 15.2446 1.64375 15.2644C1.51503 15.2786 1.27307 15.1426 1.10468 14.9985C0.829499 14.7625 0.727702 14.4513 0.777744 14.2468C0.8379 14.0215 0.945212 13.8218 1.08549 13.6718C1.86229 12.8742 2.66168 12.0966 3.43847 11.299C4.72976 9.97662 6.01698 8.65748 7.3021 7.32736C8.14799 6.44928 8.9877 5.56347 9.82742 4.67766C9.92908 4.57115 9.9979 4.44023 10.1602 4.2093ZM13.2922 6.15214C13.2913 4.79819 13.2857 3.73909 13.2813 2.48925C12.3047 2.61077 11.2544 2.32269 10.4709 2.6192C11.3784 3.75562 12.2242 4.81473 13.2922 6.15214Z" fill="#005B47"/>
</svg>
