<svg width="32" height="28" viewBox="0 0 32 28" fill="none" xmlns="http://www.w3.org/2000/svg">
<path d="M29.6615 0H2.33846C0.984615 0 0 0.861538 0 2.04615V25.9538C0 27.0308 1.10769 28 2.33846 28H29.6615C31.0154 28 32 27.1385 32 25.9538V2.04615C32 0.861538 30.8923 0 29.6615 0ZM9.84615 23.6923H4.92308V10.7692H9.84615V23.6923ZM7.38462 9.04615C5.78462 9.04615 4.43077 7.86154 4.43077 6.46154C4.43077 5.06154 5.78462 3.87692 7.38462 3.87692C8.98462 3.87692 10.3385 5.06154 10.3385 6.46154C10.3385 7.86154 8.98462 9.04615 7.38462 9.04615ZM27.0769 23.6923H22.1538V17.2308C22.1538 15.5077 21.6615 13.7846 19.6923 13.7846C17.7231 13.7846 17.2308 15.5077 17.2308 17.2308V23.6923H12.3077V10.7692H17.2308V12.2769H17.4769C18.0923 11.2 19.6923 10.3385 21.5385 10.3385C26.0923 10.3385 27.0769 12.9231 27.0769 16.1538V23.6923Z" fill="#008779"/>
</svg>
