<svg width="17" height="17" viewBox="0 0 17 17" fill="none" xmlns="http://www.w3.org/2000/svg">
<path d="M8.52515 16.9995C7.86201 17.0164 7.32102 16.6273 7.25121 16.1368C7.19886 15.7477 7.19886 15.3502 7.20758 14.9612C7.25994 13.2612 6.37865 11.9419 5.36648 10.6901C4.92148 10.1404 4.24962 9.88668 3.51667 9.86976C2.87971 9.85285 2.23402 9.86131 1.59705 9.85285C1.30911 9.8444 1.01245 9.84439 0.733232 9.78519C0.358034 9.70907 0.00899893 9.28619 0.000273388 8.93097C-0.00845216 8.55884 0.192235 8.25437 0.523806 8.1275C1.38764 7.80612 2.25147 7.45936 3.1502 7.26484C5.01747 6.85888 5.986 5.60716 6.58806 4.00023C6.71894 3.66192 6.64041 3.23905 6.63169 2.85846C6.61424 2.13111 6.54444 1.40378 6.57061 0.676431C6.57934 0.321215 6.84983 0.0590189 7.24248 0.00827368C7.63513 -0.0424715 7.94053 0.143594 8.08014 0.473438C8.307 1.04009 8.55131 1.62366 8.66475 2.22414C9.24936 5.20965 12.059 7.34097 15.2002 7.14644C15.4881 7.12953 15.7761 7.06186 16.064 7.07878C16.4218 7.09569 16.7533 7.24792 16.9017 7.59468C17.0762 7.99218 17.0238 8.39815 16.701 8.68571C16.4567 8.90561 16.1338 9.08321 15.811 9.16779C13.4202 9.77673 11.8234 11.4006 10.3488 13.1513C9.97358 13.5995 9.88632 14.2846 9.68563 14.8682C9.51112 15.401 9.42388 15.9676 9.17957 16.4666C9.06613 16.7204 8.69094 16.8726 8.52515 16.9995ZM11.867 8.82102C11.0817 8.32202 10.3837 7.94144 9.75544 7.47628C9.13593 7.01111 8.57749 6.46138 7.9667 5.9201C7.20758 6.77431 6.50954 7.56086 5.75042 8.41507C6.85857 9.08322 7.48681 10.022 8.08887 10.9862C8.25466 11.2483 8.49897 11.4598 8.76074 11.7558C9.3279 11.1891 9.8078 10.7071 10.3052 10.2334C10.8025 9.76828 11.3086 9.32847 11.867 8.82102Z" fill="#008779"/>
</svg>
