<svg width="16" height="16" viewBox="0 0 16 16" fill="none" xmlns="http://www.w3.org/2000/svg">
<path d="M9.82742 4.67766C10.0628 4.4311 10.014 4.02621 9.79965 3.7612C9.45662 3.33711 9.14947 2.96019 8.8617 2.57486C8.0259 1.4698 8.01958 0.651891 8.85576 0.655162C10.2521 0.666852 11.6506 0.689521 13.0512 0.723175C13.2966 0.729807 13.5667 0.76736 13.841 0.852096C14.4615 1.05292 15.0462 1.8268 15.0576 2.4507C15.0607 2.6382 15.0432 2.81674 15.001 2.96436C14.6865 4.19045 14.737 5.65668 14.884 7.18519C14.9252 7.62081 14.9705 8.07838 14.9316 8.46393C14.8698 9.14637 14.3952 9.09488 13.7085 8.35187C13.1554 7.75096 12.616 7.13129 12.04 6.47813C11.7585 6.15888 11.2213 5.9888 10.9255 6.29492V6.29492C9.1929 8.05837 7.49114 9.86048 5.75234 11.6162C4.59923 12.7776 3.40909 13.8926 2.21893 15.0076C2.07248 15.1499 1.87467 15.2446 1.64375 15.2644C1.51503 15.2786 1.27307 15.1426 1.10468 14.9985C0.829499 14.7625 0.727702 14.4513 0.777744 14.2468C0.8379 14.0215 0.945212 13.8218 1.08549 13.6718C1.86229 12.8742 2.66168 12.0966 3.43847 11.299C4.72976 9.97662 6.01698 8.65748 7.3021 7.32736C8.14799 6.44928 8.9877 5.56347 9.82742 4.67766V4.67766ZM11.6533 4.09993C12.1958 4.77927 13.2886 4.38494 13.2852 3.51557V3.51557C13.283 2.96435 12.7967 2.53323 12.246 2.50906C12.1376 2.5043 12.0296 2.49879 11.9227 2.49383C11.1985 2.4603 10.9342 3.19939 11.3866 3.76591C11.4751 3.87671 11.5639 3.98794 11.6533 4.09993Z" fill="#005B47"/>
</svg>
