<svg width="16" height="16" viewBox="0 0 16 16" fill="none" xmlns="http://www.w3.org/2000/svg">
<path d="M9.82742 4.67778C10.0628 4.43122 10.014 4.02633 9.79965 3.76132C9.45662 3.33724 9.14947 2.96031 8.8617 2.57498C8.0259 1.46992 8.01958 0.652013 8.85576 0.655284C10.2521 0.666974 11.6506 0.689643 13.0512 0.723297C13.2966 0.729929 13.5667 0.767482 13.841 0.852218C14.4615 1.05304 15.0462 1.82692 15.0576 2.45083C15.0607 2.63832 15.0432 2.81686 15.001 2.96448C14.6865 4.19057 14.737 5.6568 14.884 7.18532C14.9252 7.62093 14.9705 8.0785 14.9316 8.46405C14.8698 9.14649 14.3952 9.095 13.7085 8.35199C13.1554 7.75108 12.616 7.13142 12.04 6.47825C11.7585 6.159 11.2213 5.98892 10.9255 6.29504V6.29504C9.1929 8.05849 7.49114 9.8606 5.75234 11.6163C4.59923 12.7777 3.40909 13.8927 2.21893 15.0078C2.07248 15.15 1.87467 15.2447 1.64375 15.2645C1.51503 15.2787 1.27307 15.1427 1.10468 14.9987C0.829499 14.7626 0.727702 14.4514 0.777744 14.2469C0.8379 14.0216 0.945212 13.8219 1.08549 13.6719C1.86229 12.8744 2.66168 12.0967 3.43847 11.2991C4.72976 9.97674 6.01698 8.6576 7.3021 7.32748C8.14799 6.4494 8.9877 5.56359 9.82742 4.67778V4.67778ZM11.6533 4.10005C12.1958 4.77939 13.2886 4.38506 13.2852 3.51569V3.51569C13.283 2.96447 12.7967 2.53335 12.246 2.50918C12.1376 2.50442 12.0296 2.49891 11.9227 2.49396C11.1985 2.46042 10.9342 3.19951 11.3866 3.76603C11.4751 3.87683 11.5639 3.98806 11.6533 4.10005Z" fill="#005B47"/>
</svg>
