<svg width="36" height="33" viewBox="0 0 36 33" fill="none" xmlns="http://www.w3.org/2000/svg">
<path d="M20.3934 19.1609C20.0843 22.5163 18.5839 25.2124 16.5248 27.6844C15.637 28.7429 14.5932 29.6301 13.4313 30.308C10.7247 31.9044 7.79688 32.6258 4.76231 32.5714C2.94756 32.5357 1.41717 31.9024 0.553695 30.2178C0.436581 29.9791 0.312347 29.7332 0.254598 29.4778C0.0997897 28.8212 0.479579 28.2279 1.1905 28.0721C1.51628 28.0026 1.86714 28.0645 2.22753 28.06C2.71863 28.5511 2.31441 29.4393 3.05203 29.812C3.73885 30.1643 4.44574 30.3542 5.21878 30.3214C8.05309 30.2059 10.7937 29.5863 13.1681 27.8097C15.5426 26.0331 17.0048 23.6029 17.8463 20.8256C17.8872 20.6992 17.8479 20.5535 17.8304 20.4144C17.8176 20.356 17.7825 20.3057 17.7204 20.1827C17.1297 20.261 16.5095 20.3403 15.8898 20.4048C14.3555 20.5583 12.8352 20.5128 11.3878 20.0385C8.67477 19.1501 7.44928 17.0732 7.91285 14.1612C8.12603 12.8235 8.59367 11.573 9.33046 10.4091C10.3007 8.85528 11.7277 7.94072 13.4653 7.64084C15.3434 7.31427 16.8601 7.91861 17.897 9.47246C18.8005 10.8322 19.3754 12.3498 19.7266 13.963C19.8861 14.7003 20.0461 15.4229 20.2307 16.2917C22.2834 15.577 23.7445 14.0732 25.3085 12.7939C27.2046 11.2537 29.2177 8.17301 30.1149 5.70994C29.3966 5.64539 28.7932 6.10639 28.1583 6.18613C27.5457 6.25779 26.9189 6.31521 26.3178 6.2615C25.8635 6.21766 25.6786 5.80468 25.6936 5.34836C25.701 4.89965 25.8827 4.51871 26.351 4.36359C26.8862 4.18421 27.4409 4.08506 27.97 3.86912C29.8846 3.10759 31.7645 2.28102 33.3898 0.926154C33.5561 0.788338 33.7224 0.650532 33.9024 0.541671C34.3675 0.261673 34.8471 0.209099 35.279 0.488943C35.718 0.775904 35.805 1.25827 35.6703 1.77735C35.416 2.8003 35.0886 3.81095 34.8709 4.84005C34.5393 6.4243 34.325 8.01938 34.6553 9.59652C34.7003 9.79354 34.7153 10.0062 34.7086 10.2123C34.7147 10.9179 34.4195 11.3982 33.8928 11.5405C33.3585 11.6905 32.8141 11.4805 32.5239 10.9166C32.3095 10.5046 32.2002 10.0303 32.0756 9.57126C31.97 9.20714 31.8943 8.82733 31.74 8.15604C30.1671 10.5973 28.8563 12.8902 26.8143 14.619C24.8175 16.317 22.7386 17.8265 20.3934 19.1609ZM17.991 17.5492C17.8433 15.5616 17.5478 13.8216 16.7996 12.2068C16.5455 11.6638 16.2548 11.1146 15.8805 10.6491C15.0403 9.59601 14.0827 9.42906 12.749 9.9656C11.8476 10.3261 11.1505 10.952 10.762 11.8103C10.4206 12.5788 10.1142 13.3976 9.97735 14.2035C9.63978 16.1923 10.4015 17.3949 12.2819 17.8917C14.0964 18.3833 15.9454 18.2709 17.991 17.5492Z" fill="#008779"/>
</svg>
