<svg width="47" height="36" viewBox="0 0 47 36" fill="none" xmlns="http://www.w3.org/2000/svg">
<path d="M10.0481 28.3812C11.5152 29.1417 12.7482 29.2982 13.95 29.6785C15.6668 30.2376 17.368 30.9086 19.0068 31.8032C19.5999 32.1164 20.0838 33.1229 20.4583 33.9504C20.8017 34.7109 20.3178 35.8963 19.6935 35.9634C19.0848 36.0305 18.4449 36.0081 17.8363 35.8739C13.3101 34.9792 8.78386 34.0622 4.25766 33.1005C3.33681 32.8992 2.40037 32.6308 1.54195 32.1164C-0.065627 31.177 -0.455824 28.9851 0.558669 27.0169C0.933251 26.3012 1.38588 25.6526 1.85411 25.1158C5.42824 21.0228 9.01797 16.9521 12.6077 12.9038C12.8418 12.6355 13.154 12.2776 13.4193 12.2776C13.7939 12.2776 14.2153 12.4565 14.5118 12.792C14.6835 12.9933 14.7772 13.7314 14.6523 13.9998C14.1373 15.1181 13.6066 16.2141 12.9667 17.1758C11.9054 18.7638 10.7504 20.24 9.4862 21.9845C10.2822 22.8568 10.9845 22.5213 11.6244 22.4095C24.7348 19.815 38.4383 14.4695 42.8552 10.1752C42.3714 9.75023 41.9968 9.21345 41.5442 9.05688C39.125 8.20697 36.7058 7.28992 34.2554 6.73077C26.1083 4.85201 17.9143 4.40471 9.6891 5.52302C8.56536 5.67958 7.48841 5.81379 6.66121 7.37942C6.09934 8.453 4.69467 7.93858 3.94551 6.70844C3.35242 5.74669 3.46166 3.91264 4.28887 3.15219C4.9756 2.52593 5.756 1.94444 6.53638 1.72078C8.67462 1.11689 10.8284 0.490659 12.9979 0.289364C21.7538 -0.471085 30.4628 0.222254 39.0469 2.90619C40.5609 3.37588 42.0592 4.04684 43.5263 4.78493C44.2911 5.16515 45.0559 5.79139 45.6958 6.50711C47.2721 8.27404 47.4594 11.1369 46.0391 13.1275C45.1651 14.3353 44.0882 15.4312 42.9645 16.1022C40.1863 17.7573 37.377 19.3676 34.5052 20.5978C26.8262 23.8856 19.0224 26.3459 11.0626 27.8444C10.8597 27.8892 10.6256 28.0905 10.0481 28.3812Z" fill="#FCF5E3"/>
</svg>
